<?xml version="1.0" standalone="no"?>
<!DOCTYPE svg PUBLIC "-//W3C//DTD SVG 20010904//EN"
 "http://www.w3.org/TR/2001/REC-SVG-20010904/DTD/svg10.dtd">
<svg version="1.0" xmlns="http://www.w3.org/2000/svg"
 width="500.000000pt" height="500.000000pt" viewBox="0 0 500.000000 500.000000"
 preserveAspectRatio="xMidYMid meet">
<metadata>
Created by potrace 1.11, written by Peter Selinger 2001-2013
</metadata>
<g transform="translate(0.000000,500.000000) scale(0.100000,-0.100000)"
fill="#000000" stroke="none">
<path d="M2117 4714 c-1 -1 -56 -4 -122 -8 -66 -3 -133 -8 -150 -10 -16 -2
-59 -7 -95 -11 -36 -4 -67 -8 -70 -10 -3 -2 -30 -6 -60 -10 -81 -10 -254 -46
-430 -90 -37 -10 -243 -76 -322 -103 -106 -38 -250 -98 -386 -163 -57 -27
-106 -49 -109 -49 -4 0 -41 -37 -43 -44 -1 -1 -3 -18 -6 -38 -6 -39 -8 -34
121 -263 34 -60 75 -135 92 -165 147 -266 267 -470 288 -490 28 -26 93 -32
119 -11 30 25 383 193 521 248 133 53 364 131 436 147 l25 5 1 -1664 c0 -1550
2 -1667 18 -1691 32 -49 53 -52 430 -51 388 0 395 1 421 62 12 29 14 291 14
1759 l0 1724 163 -3 c89 -1 189 -6 222 -9 33 -4 79 -9 103 -11 102 -11 144
-18 252 -42 63 -13 124 -26 135 -29 11 -2 70 -19 130 -38 238 -74 462 -179
650 -306 123 -83 149 -93 191 -75 41 17 64 46 71 89 5 31 -2 48 -50 129 -271
455 -744 829 -1295 1026 -172 62 -422 128 -552 146 -25 3 -56 8 -70 10 -93 14
-161 21 -295 31 -88 6 -343 12 -348 8z"/>
</g>
</svg>
